<?xml version="1.0" standalone="no"?><!DOCTYPE svg PUBLIC "-//W3C//DTD SVG 1.1//EN" "http://www.w3.org/Graphics/SVG/1.1/DTD/svg11.dtd"><svg t="1598681704142" class="icon" viewBox="0 0 1024 1024" version="1.1" xmlns="http://www.w3.org/2000/svg" p-id="2237" width="150" height="150" xmlns:xlink="http://www.w3.org/1999/xlink"><defs><style type="text/css"></style></defs><path d="M512.002 1024c-16.368 0-29.636-13.268-29.636-29.636V126.038c0-16.368 13.268-29.636 29.636-29.636s29.636 13.268 29.636 29.636v868.326c0 16.368-13.268 29.636-29.636 29.636z" fill="#2D527C" p-id="2238"></path><path d="M946.164 589.836H77.838c-16.368 0-29.636-13.268-29.636-29.636s13.268-29.636 29.636-29.636h868.326c16.368 0 29.636 13.268 29.636 29.636s-13.268 29.636-29.636 29.636z" fill="#2D527C" p-id="2239"></path><path d="M851.336 1024H172.664C104.034 1024 48.2 968.166 48.2 899.538V220.866c0-68.63 55.834-124.464 124.464-124.464h678.672c68.63 0 124.464 55.834 124.464 124.464v339.34c0 16.368-13.268 29.636-29.636 29.636s-29.636-13.268-29.636-29.636v-339.34c0-35.946-29.244-65.192-65.192-65.192H172.664c-35.946 0-65.192 29.244-65.192 65.192v678.672c0 35.946 29.244 65.19 65.192 65.19h678.672c35.946 0 65.192-29.244 65.192-65.19v-128.59c0-16.368 13.268-29.636 29.636-29.636s29.636 13.268 29.636 29.636v128.59c0 68.628-55.834 124.462-124.464 124.462z" fill="#2D527C" p-id="2240"></path><path d="M285.422 858.688c-39.65 0-71.908-32.258-71.908-71.908V333.624c0-39.65 32.258-71.908 71.908-71.908h453.156c39.65 0 71.908 32.258 71.908 71.908V786.78c0 39.65-32.258 71.908-71.908 71.908H285.422z" fill="#CEE8FA" p-id="2241"></path><path d="M738.578 888.324H285.422c-55.99 0-101.544-45.554-101.544-101.544V333.624c0-55.99 45.554-101.544 101.544-101.544h453.156c55.99 0 101.544 45.554 101.544 101.544V786.78c0 55.992-45.552 101.544-101.544 101.544zM285.422 291.352c-23.308 0-42.272 18.964-42.272 42.272V786.78c0 23.308 18.964 42.272 42.272 42.272h453.156c23.308 0 42.272-18.964 42.272-42.272V333.624c0-23.308-18.964-42.272-42.272-42.272H285.422z" fill="#2D527C" p-id="2242"></path><path d="M514.698 654.938a29.538 29.538 0 0 1-20.956-8.68l-93.338-93.338c-11.572-11.572-11.572-30.338 0-41.914 11.572-11.572 30.338-11.572 41.914 0l72.382 72.382 109.232-109.232c11.572-11.57 30.336-11.572 41.91 0 11.572 11.572 11.572 30.338 0 41.91l-130.186 130.186a29.544 29.544 0 0 1-20.958 8.686z" fill="#2D527C" p-id="2243"></path><path d="M713.086 126.038H310.914V76.428c0-25.842 20.95-46.792 46.792-46.792h308.588c25.842 0 46.792 20.95 46.792 46.792v49.61z" fill="#CEE8FA" p-id="2244"></path><path d="M713.088 155.674H310.914c-16.368 0-29.636-13.268-29.636-29.636V76.428C281.278 34.286 315.564 0 357.706 0h308.588c42.142 0 76.43 34.286 76.43 76.428v49.61c0 16.368-13.268 29.636-29.636 29.636zM340.55 96.402h342.904v-19.974c0-9.46-7.696-17.156-17.16-17.156H357.706c-9.46 0-17.16 7.696-17.16 17.156v19.974h0.004z" fill="#2D527C" p-id="2245"></path></svg>